<mxfile host="65bd71144e">
    <diagram id="E-xOn_eW-BrYlavdOUFD" name="ページ1">
        <mxGraphModel dx="1066" dy="713" grid="1" gridSize="10" guides="1" tooltips="1" connect="1" arrows="1" fold="1" page="1" pageScale="1" pageWidth="827" pageHeight="1169" background="#FFFFFF" math="0" shadow="1">
            <root>
                <mxCell id="0"/>
                <mxCell id="1" parent="0"/>
                <mxCell id="21" style="edgeStyle=none;html=1;" parent="1" source="7" edge="1">
                    <mxGeometry relative="1" as="geometry">
                        <mxPoint x="160" y="90" as="targetPoint"/>
                    </mxGeometry>
                </mxCell>
                <mxCell id="7" value="タスク管理したい人" style="shape=umlActor;verticalLabelPosition=bottom;verticalAlign=top;html=1;outlineConnect=0;" parent="1" vertex="1">
                    <mxGeometry x="60" y="60" width="30" height="60" as="geometry"/>
                </mxCell>
                <mxCell id="11" value="&lt;span style=&quot;color: rgb(0, 0, 0);&quot;&gt;タスク管理画面&lt;/span&gt;" style="rounded=0;whiteSpace=wrap;html=1;" parent="1" vertex="1">
                    <mxGeometry x="200" y="100" width="140" height="80" as="geometry"/>
                </mxCell>
                <mxCell id="13" value="" style="fontColor=#0066CC;verticalAlign=top;verticalLabelPosition=bottom;labelPosition=center;align=center;html=1;outlineConnect=0;fillColor=#CCCCCC;strokeColor=#6881B3;gradientColor=none;gradientDirection=north;strokeWidth=2;shape=mxgraph.networks.pc;" parent="1" vertex="1">
                    <mxGeometry x="170" y="60" width="90" height="60" as="geometry"/>
                </mxCell>
                <mxCell id="17" value="Phone" style="strokeColor=#dddddd;shadow=1;strokeWidth=1;rounded=1;absoluteArcSize=1;arcSize=2;labelPosition=center;verticalLabelPosition=middle;align=center;verticalAlign=bottom;spacingLeft=0;fontColor=#999999;fontSize=12;whiteSpace=wrap;spacingBottom=2;html=1;" parent="1" vertex="1">
                    <mxGeometry x="260" y="55" width="60" height="70" as="geometry"/>
                </mxCell>
                <mxCell id="18" value="" style="sketch=0;dashed=0;connectable=0;html=1;fillColor=#757575;strokeColor=none;shape=mxgraph.gcp2.phone;part=1;" parent="17" vertex="1">
                    <mxGeometry x="0.5" width="32" height="50" relative="1" as="geometry">
                        <mxPoint x="-16" y="10" as="offset"/>
                    </mxGeometry>
                </mxCell>
                <mxCell id="19" value="ローカルサーバー" style="rounded=0;whiteSpace=wrap;html=1;" parent="1" vertex="1">
                    <mxGeometry x="200" y="470" width="140" height="80" as="geometry"/>
                </mxCell>
                <mxCell id="22" value="" style="endArrow=none;html=1;exitX=0.5;exitY=0;exitDx=0;exitDy=0;" parent="1" source="33" edge="1">
                    <mxGeometry width="50" height="50" relative="1" as="geometry">
                        <mxPoint x="220" y="230" as="sourcePoint"/>
                        <mxPoint x="270" y="180" as="targetPoint"/>
                    </mxGeometry>
                </mxCell>
                <mxCell id="24" value="" style="image;aspect=fixed;perimeter=ellipsePerimeter;html=1;align=center;shadow=0;dashed=0;spacingTop=3;image=img/lib/active_directory/internet_globe.svg;" parent="1" vertex="1">
                    <mxGeometry x="210" y="370" width="50" height="50" as="geometry"/>
                </mxCell>
                <mxCell id="26" value="通信" style="text;html=1;align=center;verticalAlign=middle;whiteSpace=wrap;rounded=0;" parent="1" vertex="1">
                    <mxGeometry x="280" y="380" width="60" height="30" as="geometry"/>
                </mxCell>
                <mxCell id="27" value="" style="strokeWidth=2;html=1;shape=mxgraph.flowchart.database;whiteSpace=wrap;" parent="1" vertex="1">
                    <mxGeometry x="170" y="440" width="50" height="50" as="geometry"/>
                </mxCell>
                <mxCell id="29" value="最初はローカルに保存" style="shape=callout;whiteSpace=wrap;html=1;perimeter=calloutPerimeter;size=30;position=0.17;position2=0.08;" parent="1" vertex="1">
                    <mxGeometry x="350" y="380" width="120" height="80" as="geometry"/>
                </mxCell>
                <mxCell id="32" value="" style="html=1;strokeColor=default;dashed=1;endArrow=circle;endFill=0;" parent="1" source="31" target="19" edge="1">
                    <mxGeometry relative="1" as="geometry"/>
                </mxCell>
                <mxCell id="31" value="ログイン&lt;br&gt;タスク管理" style="rounded=1;whiteSpace=wrap;html=1;" parent="1" vertex="1">
                    <mxGeometry x="380" y="480" width="120" height="60" as="geometry"/>
                </mxCell>
                <mxCell id="34" value="" style="endArrow=none;html=1;exitX=0.5;exitY=0;exitDx=0;exitDy=0;" edge="1" parent="1" source="19" target="33">
                    <mxGeometry width="50" height="50" relative="1" as="geometry">
                        <mxPoint x="270" y="530" as="sourcePoint"/>
                        <mxPoint x="270" y="180" as="targetPoint"/>
                    </mxGeometry>
                </mxCell>
                <mxCell id="33" value="タスク管理システム" style="rounded=0;whiteSpace=wrap;html=1;" vertex="1" parent="1">
                    <mxGeometry x="210" y="240" width="120" height="60" as="geometry"/>
                </mxCell>
            </root>
        </mxGraphModel>
    </diagram>
</mxfile>